<?xml version="1.0" standalone="no"?>
<!DOCTYPE svg PUBLIC "-//W3C//DTD SVG 20010904//EN"
 "http://www.w3.org/TR/2001/REC-SVG-20010904/DTD/svg10.dtd">
<svg version="1.0" xmlns="http://www.w3.org/2000/svg"
 width="1047.000000pt" height="227.000000pt" viewBox="0 0 1047.000000 227.000000"
 preserveAspectRatio="xMidYMid meet">
<metadata>
Created by potrace 1.15, written by Peter Selinger 2001-2017
</metadata>
<g transform="translate(0.000000,227.000000) scale(0.100000,-0.100000)"
fill="#000000" stroke="none">
<path d="M0 1135 l0 -1135 2195 0 2195 0 0 1135 0 1135 -2195 0 -2195 0 0
-1135z m4160 5 l0 -900 -1965 0 -1965 0 0 900 0 900 1965 0 1965 0 0 -900z"/>
<path d="M2795 1798 c-3 -13 -6 -241 -8 -508 l-2 -485 -25 -44 c-35 -61 -78
-83 -157 -79 -77 5 -109 26 -142 93 -21 40 -26 67 -29 159 -9 230 51 326 203
326 l55 0 0 101 0 101 -122 -4 c-109 -3 -129 -7 -174 -30 -92 -48 -150 -140
-176 -278 -6 -31 -8 -127 -5 -220 4 -135 8 -176 26 -225 31 -88 85 -154 156
-190 54 -28 66 -30 164 -30 92 0 112 3 150 23 24 13 54 34 67 47 l24 24 0 -40
0 -40 108 3 107 3 3 658 2 657 -110 0 c-105 0 -110 -1 -115 -22z"/>
<path d="M737 1439 c-160 -23 -270 -123 -318 -289 -18 -60 -18 -339 0 -400 48
-169 153 -262 328 -291 84 -14 167 -2 248 34 62 29 135 92 135 118 0 16 -92
113 -127 133 -10 6 -24 -1 -46 -22 -52 -49 -93 -65 -157 -60 -68 5 -111 32
-142 91 -20 37 -23 60 -25 182 -3 113 0 149 14 189 24 66 75 107 141 114 63 6
109 -10 161 -54 22 -20 45 -34 50 -32 21 8 131 117 131 129 0 23 -80 95 -136
123 -41 20 -169 50 -194 45 -3 -1 -31 -5 -63 -10z"/>
<path d="M1594 1440 c-185 -26 -298 -138 -335 -334 -14 -73 -11 -252 6 -329
44 -210 179 -318 397 -318 181 0 313 88 369 246 46 131 46 359 -1 491 -61 175
-234 272 -436 244z m142 -219 c79 -36 106 -106 106 -271 0 -58 -5 -126 -12
-150 -31 -118 -137 -170 -246 -121 -80 36 -108 107 -108 271 0 120 11 172 47
224 24 34 89 66 137 66 19 0 53 -9 76 -19z"/>
<path d="M3503 1439 c-166 -21 -287 -138 -323 -314 -16 -73 -16 -273 -1 -337
41 -176 130 -277 280 -318 57 -15 193 -15 257 1 105 25 244 115 244 158 0 9
-21 37 -47 62 -82 77 -77 76 -124 36 -76 -66 -201 -87 -284 -48 -50 23 -68 43
-97 106 -19 43 -22 68 -22 170 -1 66 3 137 7 158 10 45 60 105 104 123 114 48
252 -33 253 -148 l0 -38 -135 0 -135 0 0 -85 0 -85 250 0 250 0 0 89 c0 159
-34 270 -107 351 -86 96 -218 138 -370 119z"/>
<path d="M6848 1323 c-3 -483 -4 -499 -24 -543 -28 -59 -59 -86 -116 -101 -89
-24 -173 22 -204 114 -23 66 -26 259 -5 330 27 93 94 137 209 137 l52 0 0 101
0 101 -127 -4 c-145 -5 -192 -21 -258 -86 -76 -76 -105 -167 -112 -357 -9
-222 21 -351 101 -442 99 -113 306 -136 436 -48 l49 33 3 -32 3 -31 104 -3
c77 -2 107 1 113 10 9 15 11 1278 2 1302 -5 13 -25 16 -115 16 l-108 0 -3
-497z"/>
<path d="M4827 1439 c-125 -18 -229 -90 -280 -194 -44 -87 -51 -131 -51 -295
0 -164 7 -208 51 -295 65 -132 186 -199 358 -199 69 1 104 6 148 23 65 26 160
97 165 125 4 19 -37 67 -101 118 l-38 31 -32 -31 c-111 -108 -278 -70 -318 71
-20 69 -15 273 7 331 26 66 77 107 142 114 63 6 109 -10 161 -54 22 -20 45
-34 50 -32 22 9 131 117 131 131 0 19 -51 71 -100 102 -77 49 -188 69 -293 54z"/>
<path d="M5630 1440 c-107 -13 -240 -70 -240 -103 0 -15 68 -144 79 -152 5 -2
37 10 71 28 59 30 70 32 165 32 110 0 138 -10 172 -62 16 -24 18 -53 18 -234
0 -194 -1 -209 -21 -236 -41 -57 -149 -86 -232 -64 -73 20 -104 69 -86 139 14
54 48 72 155 86 l94 11 3 60 c2 32 0 70 -3 83 -6 24 -6 25 -113 19 -125 -6
-195 -25 -254 -70 -60 -46 -90 -110 -96 -206 -8 -137 38 -225 145 -277 112
-55 299 -42 377 27 l35 30 3 -33 3 -33 103 -3 103 -3 -3 373 c-3 365 -3 374
-26 424 -46 101 -121 147 -268 164 -49 5 -96 9 -104 9 -8 -1 -44 -5 -80 -9z"/>
<path d="M7564 1440 c-110 -16 -176 -50 -242 -125 -71 -81 -102 -191 -102
-365 0 -262 92 -420 278 -476 104 -32 283 -14 386 38 44 22 136 105 136 122 0
12 -126 126 -139 126 -4 0 -18 -12 -32 -26 -78 -84 -256 -99 -333 -28 -40 38
-66 97 -76 178 -11 87 2 231 24 275 52 100 199 121 290 42 25 -22 42 -59 51
-108 l7 -43 -141 0 -141 0 0 -85 0 -85 253 2 252 3 -3 100 c-5 168 -42 272
-123 353 -52 51 -125 88 -194 97 -27 3 -61 8 -75 9 -14 2 -48 0 -76 -4z"/>
<path d="M8575 1440 c-59 -8 -109 -32 -147 -68 l-28 -26 0 37 c0 45 -11 49
-130 45 l-85 -3 -3 -473 -2 -473 107 3 108 3 5 315 c4 282 7 319 24 353 27 54
69 80 135 85 62 4 105 -17 145 -71 20 -27 21 -44 26 -355 3 -180 7 -328 8
-330 1 -1 50 -1 110 0 l107 3 5 315 c4 282 7 319 24 353 27 54 69 80 135 85
62 4 105 -17 145 -71 20 -27 21 -43 26 -352 3 -178 7 -326 10 -329 4 -4 151
-9 198 -7 10 1 12 72 10 364 l-3 362 -26 55 c-34 73 -67 110 -126 142 -127 70
-322 50 -427 -42 l-37 -33 -37 35 c-56 54 -91 68 -202 83 -14 1 -48 -1 -75 -5z"/>
<path d="M9621 1441 c-11 -7 20 -98 154 -452 179 -476 174 -456 134 -549 -25
-59 -55 -80 -123 -89 l-51 -6 -3 -96 -3 -96 42 -6 c95 -13 209 28 255 90 12
16 34 54 49 83 39 77 397 1100 391 1116 -7 19 -199 20 -213 2 -6 -7 -52 -147
-104 -310 -52 -164 -96 -298 -99 -298 -3 0 -50 134 -104 298 -54 163 -103 303
-109 310 -11 14 -194 17 -216 3z"/>
<path d="M4530 126 c0 -109 1 -114 23 -120 12 -3 155 -6 318 -6 222 0 299 3
312 13 15 10 17 27 15 117 l-3 105 -332 3 -333 2 0 -114z"/>
</g>
</svg>
